<svg class="crocodoc-N6IchF crocodoc-page-svg" version="1.1"
    xmlns="http://www.w3.org/2000/svg"
    xmlns:xlink="http://www.w3.org/1999/xlink"
    xmlns:xhtml="http://www.w3.org/1999/xhtml"
    xml:space="preserve" width="594.0pt" height="792.0pt" viewBox="0 0 594.0 792.0">
<xhtml:link href="stylesheet.css" type="text/css" rel="stylesheet" />
<style>
svg.crocodoc-N6IchF { isolation:isolate; }
.crocodoc-N6IchF tspan { white-space:pre; direction:ltr; unicode-bidi:bidi-override; }
.crocodoc-N6IchF path { fill:transparent; }
.crocodoc-N6IchF [mbm="1"] { opacity:0; }
.crocodoc-N6IchF [mbm="2"] { opacity:0.3; }
.crocodoc-N6IchF [mbm="3"] { opacity:0.5; }
@supports (mix-blend-mode: multiply) {
.crocodoc-N6IchF [mbm] { opacity:1; }
}


</style>
<defs>

</defs>
<text class="f408" font-size="9.00" style="fill:#231f20"><tspan x="315" y="83" textLength="165.3" dx="0,0,0,2.74,0,0,0,2.74,0,0,0,0,2.74,0,2.74,0,0,2.74,0,0,0,0,0,2.74,0,0,0,0,2.74,0,0,2.74,0,0">ThemeanvalueoftherandomslopeforDay</tspan>&#8203;<tspan x="483.1" y="83" textLength="2.5" class="f411">t</tspan>&#8203;<tspan x="485.6" y="83" textLength="60.5" dx="0,0,2.74,0,0,0,0,0,0,0,0,0,2.74,0">&#x2019;sruminationon</tspan>&#8203;<tspan x="306" y="94" textLength="13">day</tspan>&#8203;<tspan x="322.2" y="94" textLength="2.5" class="f411">t</tspan>&#8203;<tspan x="328" y="94" textLength="7.5" class="f305">&#x3e9;</tspan>&#8203;<tspan x="338.7" y="94" textLength="184.6" dx="0,0,0,3.23,0,0,0,0,0,0,3.23,0,0,0,0,0,0,0,3.23,0,0,0,3.23,0,0,3.23,0,0,0,3.23,0,0,0,0,0,0,0,0,0,0,3.23">1&#x2019;smorningnegativemoodwasalsosignificant(</tspan>&#8203;<tspan x="523.3" y="94" textLength="5" class="f305">&#x2425;</tspan></text><text class="f408" font-size="7.00" style="fill:#231f20" transform="matrix(1,0,0,0.7857,0,0)"><tspan x="528.3" y="122.2" textLength="7">20</tspan></text><text class="f408" font-size="9.00" style="fill:#231f20"><tspan x="538.5" y="94" textLength="7.5" class="f305">&#x3ed;</tspan>&#8203;<tspan x="306" y="105" textLength="13.5">.16,</tspan>&#8203;<tspan x="321.9" y="105" textLength="4.5" class="f411">p</tspan>&#8203;<tspan x="328.7" y="105" textLength="7.5" class="f305">&#x3fd;</tspan>&#8203;<tspan x="338.6" y="105" textLength="107.5" dx="0,0,0,0,0,2.37,0,0,0,0,2.37,0,0,0,0,0,0,0,0,0,0,2.37,0,0,2.37,0,0">.01),aftercontrollingforDay</tspan>&#8203;<tspan x="448.4" y="105" textLength="2.5" class="f411">t</tspan>&#8203;<tspan x="450.9" y="105" textLength="95.1" dx="0,0,2.37,0,0,0,0,0,0,2.37,0,0,0,0,0,0,0,2.37,0,0,0">&#x2019;smorningnegativemood</tspan>&#8203;<tspan x="306" y="116" textLength="100.1" dx="0,0,0,2.54,0,0,2.54,0,0,0,0,0,2.54,0,0,0,0,0,2.54,0,2.54,0,0">andthedirecteffectofDay</tspan>&#8203;<tspan x="408.7" y="116" textLength="2.5" class="f411">t</tspan>&#8203;<tspan x="411.2" y="116" textLength="134.9" dx="0,0,2.54,0,0,0,0,0,0,0,2.54,0,0,0,0,0,0,0,0,0,0,0,0,2.54,0,2.54,0,0,0,0,0,0,0">&#x2019;scustomermistreatment.Itsuggests</tspan>&#8203;<tspan x="306" y="127" textLength="240.1" dx="0,0,0,0,4.3,0,0,0,0,0,0,0,4.3,0,0,0,0,0,0,4.3,0,0,0,0,0,0,0,0,0,0,0,0,0,0,4.3,0,0,0,4.3,0,0,0,0,0,4.3,0,4.3,0,0,0,0,0,0,0,0,0">thatcustomerservicerepresentativeswerelikelytoexperience</tspan>&#8203;<tspan x="306" y="138" textLength="240" dx="0,0,0,0,0,0,0,0,2.67,0,0,0,0,0,0,0,2.67,0,0,0,2.67,0,2.67,0,0,2.67,0,0,0,2.67,0,0,0,0,0,0,2.67,0,0,0,2.67,0,0,0,2.67,0,0,0,0,0,0,0,0">strongernegativemoodinthenextmorningwhentheyruminated</tspan>&#8203;<tspan x="306" y="149" textLength="240" dx="0,0,0,0,2.89,0,2.89,0,0,0,0,0,0,0,2.89,0,0,0,0,0,0,0,0,0,0,0,2.89,0,2.89,0,0,0,0,0,2.89,0,0,0,0,2.89,0,0,0,0,0,0,0,0,0,2.89,2.89,0,0">moreoncustomermistreatmentatnight.Thus,Hypothesis2was</tspan>&#8203;<tspan x="306" y="160" textLength="240" dx="0,0,0,0,0,0,0,0,0,0,2.16,0,2.16,0,0,0,0,0,2.16,0,0,2.16,0,2.16,0,0,2.16,0,0,0,0,0,0,0,0,0,0,0,0,2.16,0,0,0,0,2.16,0,0,0,0,0,0,0,2.16,0,2.16,0,0">supported.Intotal,31%ofthewithin-personlevelvarianceinDay</tspan>&#8203;<tspan x="306" y="171" textLength="2.5" class="f411">t</tspan>&#8203;<tspan x="311.3" y="171" textLength="7.5" class="f305">&#x3e9;</tspan>&#8203;<tspan x="321.7" y="171" textLength="224.4" dx="0,0,0,2.83,0,0,0,0,0,0,2.83,0,0,0,0,0,0,0,2.83,0,0,0,2.83,0,0,2.83,0,0,0,0,0,0,0,0,2.83,0,0,2.83,0,2.83,0,0,2.83,0,0,0,0,0,0">1&#x2019;smorningnegativemoodwasaccountedforbythepredic-</tspan>&#8203;<tspan x="306" y="182" textLength="15.8">tors.</tspan>&#8203;<tspan x="315" y="193" textLength="231.1" dx="0,0.18,0.18,0.18,0.18,3.47,0.18,0.18,0.18,0.18,3.47,0.18,0.18,0.18,0.18,3.47,0.18,0.18,0.18,0.18,0.18,0.18,0.18,0.18,0.18,3.47,0.18,0.18,0.18,0.18,0.18,0.18,0.18,0.18,3.47,0.18,0.18,0.18,3.47,0.18,0.18,0.18,0.18,0.18,3.47,0.18,0.18,0.18,0.18,0.18">UsingMonteCarlosimulationprocedurewith20,000repli-</tspan>&#8203;<tspan x="306" y="204" textLength="189.4" dx="0,0.18,0.18,0.18,0.18,0.18,0.18,0.18,3.53,0.18,3.53,0.18,0.18,0.18,0.18,3.53,0.18,0.18,0.18,3.53,0.18,0.18,3.53,0.18,0.18,0.18,0.18,0.18,0.18,0.18,3.53,0.18,0.18,0.18,0.18,0.18,3.53,0.18,0.18,3.53,0.18,0.18">cations,wefoundthattheindirecteffectforday</tspan>&#8203;<tspan x="498.9" y="204" textLength="2.5" class="f411">t</tspan>&#8203;<tspan x="501.6" y="204" textLength="44.5" dx="0,0.18,3.53,0.18,0.18,0.18,0.18,0.18,0.18,0.18">&#x2019;scustomer</tspan>&#8203;<tspan x="306" y="215" textLength="49" dx="0,0.18,0.18,0.18,0.18,0.18,0.18,0.18,0.18,0.18,0.18,0.18">mistreatment</tspan>&#8203;<tspan x="358.9" y="215" textLength="9" class="f309">&#xa1;</tspan>&#8203;<tspan x="371.8" y="215" textLength="15.4" dx="0,0.18,0.18">Day</tspan>&#8203;<tspan x="391" y="215" textLength="2.5" class="f411">t</tspan>&#8203;<tspan x="393.7" y="215" textLength="51.7" dx="0,0.18,3.9,0.18,0.18,0.18,0.18,0.18,0.18,0.18,0.18,0.18">&#x2019;srumination</tspan>&#8203;<tspan x="449.3" y="215" textLength="9" class="f309">&#xa1;</tspan>&#8203;<tspan x="462.2" y="215" textLength="15.4" dx="0,0.18,0.18">Day</tspan>&#8203;<tspan x="481.4" y="215" textLength="2.5" class="f411">t</tspan>&#8203;<tspan x="487.8" y="215" textLength="7.5" class="f305">&#x3e9;</tspan>&#8203;<tspan x="499.2" y="215" textLength="46.8" dx="0,0.18,0.18,3.9,0.18,0.18,0.18,0.18,0.18,0.18">1&#x2019;smorning</tspan>&#8203;<tspan x="306" y="226" textLength="240" dx="0,0.18,0.18,0.18,0.18,0.18,0.18,0.18,2.99,0.18,0.18,0.18,2.99,0.18,0.18,2.99,0.18,0.18,0.18,0.18,0.18,2.99,0.18,0.18,0.18,2.99,2.99,0.18,0.18,2.99,0.18,0.18,0.18,0.18,0.18,0.18,0.18,0.18,0.18,0.18,0.18,0.18,0.18,2.99,0.18,0.18,0.18,0.18,0.18,0.18,0.18,0.18">negativemoodwas0.043,witha95%bias-correctedbootstrap</tspan>&#8203;<tspan x="306" y="237" textLength="240.1" dx="0,0.18,0.18,0.18,0.18,3.19,0.18,0.18,0.18,0.18,0.18,0.18,0.18,0.18,0.18,3.19,0.18,0.18,0.18,0.18,0.18,0.18,0.18,3.19,0.18,0.18,0.18,3.19,0.18,3.19,0.18,0.18,0.18,0.18,0.18,0.18,3.19,0.18,0.18,0.18,0.18,0.18,0.18,3.19,0.18,0.18,0.18,3.19,0.18,0.18,0.18,0.18,0.18,0.18">(BCB)confidenceinterval(CI)of[0.012,0.084].Thisfinding</tspan>&#8203;<tspan x="306" y="248" textLength="67.8" dx="0,0.18,0.18,0.18,0.18,0.18,0.18,0.18,0.18,2.48,0.18,0.18,0.18,2.48,0.18,0.18">indicatesthatDay</tspan>&#8203;<tspan x="376.3" y="248" textLength="2.5" class="f411">t</tspan>&#8203;<tspan x="378.9" y="248" textLength="167.1" dx="0,0.18,2.48,0.18,0.18,0.18,0.18,0.18,0.18,0.18,2.48,0.18,0.18,0.18,0.18,0.18,0.18,0.18,0.18,0.18,0.18,0.18,2.48,0.18,0.18,2.48,0.18,0.18,0.18,0.18,0.18,0.18,0.18,0.18,0.18,2.48,0.18,0.18">&#x2019;scustomermistreatmentwaspositivelyand</tspan>&#8203;<tspan x="306" y="259" textLength="104.7" dx="0,0.18,0.18,0.18,0.18,0.18,0.18,0.18,0.18,0.18,0.18,0.18,0.18,3.14,0.18,0.18,0.18,0.18,0.18,0.18,3.14,0.18,3.14,0.18,0.18">significantlyrelatedtoDay</tspan>&#8203;<tspan x="413.8" y="259" textLength="2.5" class="f411">t</tspan>&#8203;<tspan x="419.5" y="259" textLength="7.5" class="f305">&#x3e9;</tspan>&#8203;<tspan x="430.1" y="259" textLength="116" dx="0,0.18,0.18,3.14,0.18,0.18,0.18,0.18,0.18,0.18,3.14,0.18,0.18,0.18,0.18,0.18,0.18,0.18,3.14,0.18,0.18,0.18,3.14,0.18">1&#x2019;smorningnegativemoodof</tspan>&#8203;<tspan x="306" y="270" textLength="147" dx="0,0.18,0.18,0.18,0.18,0.18,0.18,0.18,3.58,0.18,0.18,0.18,0.18,0.18,0.18,0.18,0.18,0.18,0.18,0.18,0.18,0.18,0.18,3.58,0.18,0.18,3.58,0.18,0.18,0.18,0.18,3.58,0.18,0.18">customerrepresentativesviatheirday</tspan>&#8203;<tspan x="456.5" y="270" textLength="2.5" class="f411">t</tspan>&#8203;<tspan x="459.2" y="270" textLength="86.8" dx="0,0.18,3.58,0.18,0.18,0.18,0.18,0.18,0.18,0.18,0.18,0.18,3.58,0.18,3.58,0.18,0.18,0.18,0.18,0.18">&#x2019;sruminationatnight,</tspan>&#8203;<tspan x="306" y="281" textLength="240" dx="0,0.18,0.18,0.18,0.18,0.18,0.18,0.18,0.18,3.03,0.18,0.18,0.18,0.18,0.18,0.18,3.03,0.18,0.18,3.03,0.18,0.18,0.18,0.18,0.18,0.18,0.18,0.18,0.18,3.03,0.18,3.03,0.18,3.03,0.18,0.18,0.18,0.18,0.18,3.03,0.18,3.03,0.18,0.18,0.18,0.18,3.03,0.18,0.18,0.18,3.03,0.18,0.18">providingsupportforHypothesis3.Itshouldbenotedthatthe</tspan>&#8203;<tspan x="306" y="292" textLength="75.6" dx="0,0.18,0.18,0.18,0.18,0.18,3.26,0.18,0.18,0.18,0.18,0.18,3.26,0.18,3.26,0.18,0.18">directeffectofDay</tspan>&#8203;<tspan x="384.8" y="292" textLength="2.5" class="f411">t</tspan>&#8203;<tspan x="387.5" y="292" textLength="127.4" dx="0,0.18,3.26,0.18,0.18,0.18,0.18,0.18,0.18,0.18,3.26,0.18,0.18,0.18,0.18,0.18,0.18,0.18,0.18,0.18,0.18,0.18,3.26,0.18,3.26,0.18,0.18">&#x2019;scustomermistreatmentonDay</tspan>&#8203;<tspan x="518.2" y="292" textLength="2.5" class="f411">t</tspan>&#8203;<tspan x="523.9" y="292" textLength="7.5" class="f305">&#x3e9;</tspan>&#8203;<tspan x="534.7" y="292" textLength="11.4" dx="0,0.18,0.18">1&#x2019;s</tspan>&#8203;<tspan x="306" y="303" textLength="179" dx="0,0.18,0.18,0.18,0.18,0.18,0.18,3.75,0.18,0.18,0.18,0.18,0.18,0.18,0.18,3.75,0.18,0.18,0.18,3.75,0.18,0.18,3.75,0.18,0.18,0.18,3.75,0.18,0.18,0.18,0.18,0.18,0.18,0.18,0.18,0.18,0.18,3.75">morningnegativemoodwasalsosignificant(</tspan>&#8203;<tspan x="485.2" y="303" textLength="5" class="f305">&#x2425;</tspan></text><text class="f408" font-size="7.00" style="fill:#231f20" transform="matrix(1,0,0,0.7857,0,0)"><tspan x="490.4" y="388.2" textLength="7.1" dx="0,0.14">30</tspan></text><text class="f408" font-size="9.00" style="fill:#231f20"><tspan x="501.2" y="303" textLength="7.5" class="f305">&#x3ed;</tspan>&#8203;<tspan x="512.5" y="303" textLength="14" dx="0,0.18,0.18,0.18">.10,</tspan>&#8203;<tspan x="530.3" y="303" textLength="4.5" class="f411">p</tspan>&#8203;<tspan x="538.5" y="303" textLength="7.5" class="f305">&#x3fd;</tspan>&#8203;<tspan x="306" y="314" textLength="240.1" dx="0,0.18,0.18,0.18,0.18,5.51,0.18,0.18,0.18,0.18,0.18,0.18,0.18,0.18,0.18,5.51,0.18,0.18,0.18,5.51,0.18,0.18,0.18,0.18,5.51,0.18,0.18,5.51,0.18,5.51,0.18,0.18,0.18,0.18,0.18,0.18,0.18,0.18,0.18,5.51,0.18,0.18,0.18,0.18,5.51,0.18,0.18,0.18">.05),suggestingthattheremaybemechanismsotherthan</tspan>&#8203;<tspan x="306" y="325" textLength="240.1" dx="0,0.18,0.18,0.18,0.18,0.18,0.18,0.18,0.18,3.93,0.18,0.18,0.18,0.18,0.18,0.18,0.18,0.18,0.18,3.93,0.18,0.18,0.18,3.93,0.18,0.18,3.93,0.18,0.18,0.18,0.18,0.18,0.18,3.93,0.18,0.18,3.93,0.18,0.18,0.18,0.18,0.18,0.18,0.18,3.93,0.18,0.18,0.18,0.18,0.18,0.18,0.18,0.18">cognitiveruminationthatcanprolongthenegativeemotional</tspan>&#8203;<tspan x="306" y="336" textLength="171.7" dx="0,0.18,0.18,0.18,0.18,0.18,0.18,0.18,0.18,3.35,0.18,0.18,0.18,0.18,0.18,0.18,3.35,0.18,3.35,0.18,0.18,0.18,0.18,0.18,0.18,0.18,3.35,0.18,0.18,0.18,0.18,0.18,0.18,0.18,0.18,0.18,0.18,0.18,0.18">reactionsinducedbycustomermistreatment.</tspan>&#8203;<tspan x="306" y="362.5" textLength="172.7" class="f301" font-size="10.00" dx="0,0,0,0,0,0,0,3.33,0,0,0,0,0,0,0,0,0,0,3.33,0,0,0,0,0,0,0,0,0,3.33,0,0,0,0,0,0">TestingCross-LevelModerationEffects</tspan>&#8203;<tspan x="315" y="379.5" textLength="27.7" style="fill:#2e3192" dx="0,0,0,0,0,2.71">Table3</tspan>&#8203;<tspan x="345.4" y="379.5" textLength="200.6" dx="0,0,0,0,0,0,0,0,2.71,0,0,2.71,0,0,0,0,0,0,0,0,2.71,0,0,0,0,0,0,0,0,2.71,0,0,2.71,0,0,0,0,2.71,0,0,2.71,0,0,2.71,0,0">presentstheparameterestimatesandtheir95%CIsfor</tspan>&#8203;<tspan x="306" y="390.5" textLength="93.1" dx="0,0,0,2.2,0,0,0,2.2,0,0,0,0,2.2,0,0,0,0,0,2.2">theMSEMmodel(i.e.,M</tspan></text><text class="f408" font-size="7.00" style="fill:#231f20" transform="matrix(1,0,0,0.7857,0,0)"><tspan x="399.1" y="499.5" textLength="3.5">2</tspan></text><text class="f408" font-size="9.00" style="fill:#231f20"><tspan x="402.6" y="390.5" textLength="143.5" dx="0,2.2,0,0,0,2.2,0,0,0,0,0,0,0,2.2,0,0,0,0,0,0,2.2,0,0,0,2.2,0,0,0,0,0,0,0,0,0">)thatincludedservicerulecommitment</tspan>&#8203;<tspan x="306" y="401.5" textLength="240.1" dx="0,0,0,3.2,0,0,0,0,0,0,0,0,3.2,0,0,0,0,0,0,0,0,0,0,0,0,0,3.2,0,0,0,0,0,0,3.2,0,3.2,0,0,0,0,0,0,0,0,0,3.2,0,3.2,0,0,3.2,0,0,0,0,0,0">andperceivedorganizationalsupportaspredictorsofthewithin-</tspan>&#8203;<tspan x="306" y="412.5" textLength="126.8" dx="0,0,0,0,0,0,2.82,0,0,0,0,0,2.82,0,0,0,0,2.82,0,0,0,0,0,0,2.82,0,0">personrandomslopebetweenDay</tspan>&#8203;<tspan x="435.6" y="412.5" textLength="2.5" class="f411">t</tspan>&#8203;<tspan x="438.1" y="412.5" textLength="108" dx="0,0,2.82,0,0,0,0,0,0,0,2.82,0,0,0,0,0,0,0,0,0,0,0,2.82,0,0">&#x2019;scustomermistreatmentand</tspan>&#8203;<tspan x="306" y="423.5" textLength="15">Day</tspan>&#8203;<tspan x="327.5" y="423.5" textLength="2.5" class="f411">t</tspan>&#8203;<tspan x="330" y="423.5" textLength="92.7" dx="0,0,6.48,0,0,0,0,0,0,0,0,0,6.48,0,6.48,0,0,0,0,0">&#x2019;sruminationatnight.</tspan>&#8203;<tspan x="429.1" y="423.5" textLength="34.5" style="fill:#2e3192" dx="0,0,0,0,0,0,6.48">Figure2</tspan>&#8203;<tspan x="470.1" y="423.5" textLength="76" dx="0,0,0,0,0,0,0,0,0,0,6.48,0,0,6.48,0,0">summarizesallthe</tspan>&#8203;<tspan x="306" y="434.5" textLength="135.1" dx="0,0,0,0,0,0,0,0,0,0,0,0,0,0,0,0,0,0,3.55,0,0,0,0,0,0,0,0,0,0,0,3.55,0,3.55">hypotheses-relatedcoefficientsinM</tspan></text><text class="f408" font-size="7.00" style="fill:#231f20" transform="matrix(1,0,0,0.7857,0,0)"><tspan x="441.1" y="555.5" textLength="3.5">2</tspan></text><text class="f408" font-size="9.00" style="fill:#231f20"><tspan x="444.6" y="434.5" textLength="98.4" dx="0,3.55,0,0,0,0,3.55,0,0,0,0,0,0,0,0,0,0,3.55,0,0,3.55,0,0">.Aftercontrollingforneu</tspan>&#8203;<tspan x="543.1" y="434.5" textLength="3">-</tspan>&#8203;<tspan x="306" y="445.5" textLength="240.1" dx="0,0,0,0,0,0,0,0,0,2.26,0,0,0,0,0,0,2.26,0,0,0,2.26,0,0,0,0,0,0,0,0,0,2.26,0,0,2.26,0,0,0,0,0,0,0,0,0,0,0,0,2.26,0,0,2.26,0,0,0,0,0,0,0,0,0">roticism,servicerulecommitmentwassignificantlyandpositively</tspan>&#8203;<tspan x="306" y="456.5" textLength="240.1" dx="0,0,0,0,0,0,0,4.51,0,4.51,0,0,4.51,0,0,0,0,0,0,0,4.51,0,0,0,0,0,0,0,0,0,0,0,0,0,0,0,0,0,0,0,0,0,0,4.51,0,0,0,0,0,4.51,0,0,0,0">relatedtothecustomermistreatment&#x2013;ruminationrandomslope</tspan>&#8203;<tspan x="306" y="467.5" textLength="3">(</tspan>&#8203;<tspan x="309" y="467.5" textLength="5" class="f305">&#x2425;</tspan></text><text class="f408" font-size="7.00" style="fill:#231f20" transform="matrix(1,0,0,0.7857,0,0)"><tspan x="314" y="597.5" textLength="7">12</tspan></text><text class="f408" font-size="9.00" style="fill:#231f20"><tspan x="324.6" y="467.5" textLength="7.5" class="f305">&#x3ed;</tspan>&#8203;<tspan x="335.7" y="467.5" textLength="13.5">.16,</tspan>&#8203;<tspan x="352.9" y="467.5" textLength="4.5" class="f411">p</tspan>&#8203;<tspan x="361" y="467.5" textLength="7.5" class="f305">&#x3fd;</tspan>&#8203;<tspan x="372.1" y="467.5" textLength="173.9" dx="0,0,0,0,0,3.62,0,0,0,0,0,0,3.62,0,0,0,0,0,0,0,0,3.62,0,0,0,0,0,0,0,0,0,0,0,0,0,3.62,0,0,0,0,0,0">.05),whereasperceivedorganizationalsupport</tspan>&#8203;<tspan x="306" y="478.5" textLength="240.1" dx="0,0,0,7.87,0,0,0,0,0,0,0,0,0,0,0,0,7.87,0,0,7.87,0,0,0,0,0,0,0,0,0,7.87,0,0,0,0,0,0,7.87,0,7.87,0,0,7.87,0,0,0,0,0,0,0">wassignificantlyandnegativelyrelatedtothecustomer</tspan>&#8203;<tspan x="306" y="489.5" textLength="152" dx="0,0,0,0,0,0,0,0,0,0,0,0,0,0,0,0,0,0,0,0,0,0,0,3.82,0,0,0,0,0,3.82,0,0,0,0,3.82">mistreatment&#x2013;ruminationrandomslope(</tspan>&#8203;<tspan x="457.9" y="489.5" textLength="5" class="f305">&#x2425;</tspan></text><text class="f408" font-size="7.00" style="fill:#231f20" transform="matrix(1,0,0,0.7857,0,0)"><tspan x="463" y="625.5" textLength="7">13</tspan></text><text class="f408" font-size="9.00" style="fill:#231f20"><tspan x="473.8" y="489.5" textLength="18.8" class="f305" dx="0,3.82">&#x3ed;&#x3ea;</tspan>&#8203;<tspan x="492.6" y="489.5" textLength="13.5">.17,</tspan>&#8203;<tspan x="509.9" y="489.5" textLength="4.5" class="f411">p</tspan>&#8203;<tspan x="518.2" y="489.5" textLength="7.5" class="f305">&#x3fd;</tspan>&#8203;<tspan x="529.5" y="489.5" textLength="16.5">.05).</tspan>&#8203;<tspan x="306" y="500.5" textLength="141.9" dx="0,0,0,0,0,0,0,0,0,3.23,0,0,3.23,0,0,0,0,0,0,0,0,3.23,0,0,0,0,0,0,0,0,0,0,3.23,0">Followingtheprocedureillustratedby</tspan>&#8203;<tspan x="451.1" y="500.5" textLength="94.9" style="fill:#2e3192" dx="0,0,0,0,0,0,3.23,0,0,0,0,0,3.23,0,0,0,0,3.23,0,0">Cohen,Cohen,West,and</tspan>&#8203;<tspan x="306" y="511.5" textLength="48.3" style="fill:#2e3192" dx="0,0,0,0,0,2.31,0,0,0,0,0">Aiken(2003)</tspan>&#8203;<tspan x="354.3" y="511.5" textLength="191.8" dx="0,2.31,0,2.31,0,0,0,0,0,0,2.31,0,0,0,2.31,0,0,0,0,0,0,0,0,0,0,0,2.31,0,2.31,0,0,0,0,0,0,0,0,0,0,2.32,0,0,0,0,0,2.31,0">,weplottedbothinteractionsatconditionalvaluesof</tspan>&#8203;<tspan x="306" y="522.5" textLength="80.2" dx="0,0,0,2.67,0,0,0,0,0,0,0,0,0,2.67,0,0,0,0,0,2.67">themoderators(i.e.,1</tspan>&#8203;<tspan x="388.9" y="522.5" textLength="11" class="f411">SD</tspan>&#8203;<tspan x="402.6" y="522.5" textLength="113.8" dx="0,0,0,0,0,2.67,0,0,2.67,0,0,0,0,2.67,0,0,2.67,0,0,0,0,0,2.67,0">aboveandbelowthemeans)in</tspan>&#8203;<tspan x="519" y="522.5" textLength="27" style="fill:#2e3192">Figures</tspan>&#8203;<tspan x="306" y="533.5" textLength="4.5" style="fill:#2e3192">3</tspan>&#8203;<tspan x="313.4" y="533.5" textLength="13">and</tspan>&#8203;<tspan x="329.3" y="533.5" textLength="4.5" style="fill:#2e3192">4</tspan>&#8203;<tspan x="333.8" y="533.5" textLength="71.8" dx="0,2.9,0,0,0,0,0,0,0,2.9,0,0,0,0,0,0,0,0">.Further,following</tspan>&#8203;<tspan x="408.5" y="533.5" textLength="137.6" style="fill:#2e3192" dx="0,0,0,0,0,0,0,0,0,2.9,0,0,0,0,0,0,2.9,0,0,2.9,0,0,0,0,0,0,2.9,0,0,0,0,0">Preacher,Curran,andBauer&#x2019;s(2006)</tspan>&#8203;<tspan x="306" y="544.5" textLength="35.2">approach,</tspan></text><text class="f408" font-size="7.00" style="fill:#231f20" transform="matrix(1,0,0,0.7857,0,0)"><tspan x="341.2" y="688.2" textLength="3.5">3</tspan></text><text class="f408" font-size="9.00" style="fill:#231f20"><tspan x="348" y="544.5" textLength="198" dx="0,0,0,0,0,0,3.29,0,0,0,0,3.29,0,0,0,0,0,0,0,3.29,0,0,0,0,0,0,0,3.29,0,0,0,3.29,0,0,0,3.29,0,0,0,0,0,0,3.29,0,0,0">simpleslopeanalysisrevealedthatwhenservicerule</tspan>&#8203;<tspan x="306" y="555.5" textLength="106.1" dx="0,0,0,0,0,0,0,0,0,0,2.46,0,0,2.46,0,0,0,2.46,0,0,0,0,0,2.46">commitmentwashigh(i.e.,1</tspan>&#8203;<tspan x="414.5" y="555.5" textLength="11" class="f411">SD</tspan>&#8203;<tspan x="428" y="555.5" textLength="118.1" dx="0,0,0,0,0,2.46,0,0,2.46,0,0,0,0,0,2.46,0,0,0,0,2.46,0,0,0,0,0,0,0">abovethemean),dailycustomer</tspan>&#8203;<tspan x="306" y="566.5" textLength="240.1" dx="0,0,0,0,0,0,0,0,0,0,0,0,0,0,2.52,0,0,0,0,0,0,0,0,0,2.52,0,0,0,0,0,2.52,0,0,2.52,0,0,0,0,0,0,0,2.52,0,0,2.52,0,0,0,0,0,0,0,0,0,0,2.52,0,0,0,0">mistreatment&#x2019;spredictiveeffectwaspositiveandsignificant(sim-</tspan>&#8203;<tspan x="306" y="577.5" textLength="32.4" dx="0,0,0,2.42,0,0,0,0">pleslope</tspan>&#8203;<tspan x="340.8" y="577.5" textLength="7.5" class="f305">&#x3ed;</tspan>&#8203;<tspan x="350.7" y="577.5" textLength="13.5">.36,</tspan>&#8203;<tspan x="366.7" y="577.5" textLength="4.5" class="f411">p</tspan>&#8203;<tspan x="373.6" y="577.5" textLength="7.5" class="f305">&#x3fd;</tspan>&#8203;<tspan x="383.5" y="577.5" textLength="162.5" dx="0,0,0,0,0,2.42,0,0,0,0,0,0,2.42,0,0,0,2.42,0,0,0,0,0,0,2.42,0,0,0,2.42,0,0,0,0,0,0,0,0,0">.01),whereaswhenservicerulecommitment</tspan>&#8203;<tspan x="306" y="588.5" textLength="60.3" dx="0,0,0,4.01,0,0,4.01,0,0,0,0,0,4.01">waslow(i.e.,1</tspan>&#8203;<tspan x="370.3" y="588.5" textLength="11" class="f411">SD</tspan>&#8203;<tspan x="385.3" y="588.5" textLength="160.8" dx="0,0,0,0,0,4.01,0,0,4.01,0,0,0,0,0,4.01,0,0,0,0,4.01,0,0,0,0,0,0,0,4.01,0,0,0,0,0,0,0,0">belowthemean),dailycustomermistreat-</tspan>&#8203;<tspan x="306" y="599.5" textLength="212.7" dx="0,0,0,0,0,0,3.18,0,0,0,0,0,0,0,0,0,3.18,0,0,0,0,0,3.18,0,0,3.18,0,0,3.18,0,0,0,0,0,0,0,0,0,0,3.18,0,0,0,0,0,0,3.18,0,0,0,0">ment&#x2019;spredictiveeffectwasnotsignificant(simpleslope</tspan>&#8203;<tspan x="521.9" y="599.5" textLength="7.5" class="f305">&#x3ed;</tspan>&#8203;<tspan x="532.6" y="599.5" textLength="13.5">.16,</tspan>&#8203;<tspan x="306" y="610.5" textLength="4.5" class="f411">p</tspan>&#8203;<tspan x="312.6" y="610.5" textLength="7.5" class="f305">&#x3fe;</tspan>&#8203;<tspan x="322.3" y="610.5" textLength="223.8" dx="0,0,0,0,0,2.13,0,2.13,0,0,0,0,0,0,0,0,2.13,0,2.13,0,0,0,0,2.13,0,0,0,2.13,0,0,0,2.13,0,0,0,0,0,0,0,0,2.13,0,0,0,0,0,0,0,0,0,0,0,0,0">.05).Inaddition,wefoundthatwhenperceivedorganizational</tspan>&#8203;<tspan x="306" y="621.5" textLength="240.1" dx="0,0,0,0,0,0,0,2.84,0,0,2.84,0,0,0,0,2.84,0,0,0,0,2.84,0,0,0,0,0,0,0,2.84,0,0,0,0,0,0,0,0,0,0,0,0,0,2.84,0,0,0,0,0,0,0,0,0,2.84,0,0,0,0,0">supportwashigh,dailycustomermistreatment&#x2019;spredictiveeffect</tspan>&#8203;<tspan x="306" y="632.5" textLength="121.2" dx="0,0,0,2.92,0,0,2.92,0,0,0,0,0,0,0,0,0,0,2.92,0,0,0,0,0,0,2.92,0,0,0,0">wasnotsignificant(simpleslope</tspan>&#8203;<tspan x="430.1" y="632.5" textLength="7.5" class="f305">&#x3ed;</tspan>&#8203;<tspan x="440.5" y="632.5" textLength="13.5">.06,</tspan>&#8203;<tspan x="456.9" y="632.5" textLength="4.5" class="f411">p</tspan>&#8203;<tspan x="464.3" y="632.5" textLength="7.5" class="f305">&#x3fe;</tspan>&#8203;<tspan x="474.7" y="632.5" textLength="71.3" dx="0,0,0,0,0,2.92,0,0,0,0,0,0,2.92,0,0,0">.05),whereaswhen</tspan>&#8203;<tspan x="306" y="643.5" textLength="240.1" dx="0,0,0,0,0,0,0,0,0,1.98,0,0,0,0,0,0,0,0,0,0,0,0,0,1.98,0,0,0,0,0,0,1.98,0,0,1.98,0,0,0,1.98,0,0,0,0,1.98,0,0,0,0,0,0,0,1.98,0,0,0,0,0,0,0,0">perceivedorganizationalsupportwaslow,dailycustomermistreat-</tspan>&#8203;<tspan x="306" y="654.5" textLength="240.1" dx="0,0,0,0,0,0,5.51,0,0,0,0,0,0,0,0,0,5.51,0,0,0,0,0,5.51,0,0,5.51,0,0,0,0,0,0,0,5.51,0,0,5.51,0,0,0,0,0,0,0,0,0,0,5.51,0,0,0,0,0,0">ment&#x2019;spredictiveeffectwaspositiveandsignificant(simple</tspan>&#8203;<tspan x="306" y="665.5" textLength="19">slope</tspan>&#8203;<tspan x="327.6" y="665.5" textLength="7.5" class="f305">&#x3ed;</tspan>&#8203;<tspan x="337.8" y="665.5" textLength="13.5">.46,</tspan>&#8203;<tspan x="353.9" y="665.5" textLength="4.5" class="f411">p</tspan>&#8203;<tspan x="361" y="665.5" textLength="7.5" class="f305">&#x3fd;</tspan>&#8203;<tspan x="371.1" y="665.5" textLength="174.9" dx="0,0,0,0,0,2.63,0,0,0,2.63,0,0,0,0,0,0,2.63,0,0,2.63,0,0,2.63,0,0,0,0,0,2.63,0,0,0,0,2.63,0,0,0,0,0,0,0">.01).Bothfiguresandthesimpleslopeanalyses</tspan></text><path style="stroke:#231f20;stroke-width:0.5" d="M306 683.75 l36 0"/><text class="f408" font-size="6.00" style="fill:#231f20" transform="matrix(1,0,0,0.8333,0,0)"><tspan x="314" y="828.9" textLength="3">3</tspan></text><text class="f408" font-size="8.00" style="fill:#231f20"><tspan x="319" y="694" textLength="227" dx="0,0,0,0,0,0,0,0,0,2.74,0,0,2.74,0,0,0,0,0,0,0,0,2.74,0,0,0,0,0,0,0,0,0,2.74,0,0,0,0,0,0,0,0,0,0,2.74,0,2.74,0,0,0,2.74,0,0,2.74,0,0,0,0,0">Followingoneanonymousreviewer&#x2019;ssuggestion,weusedtheonline</tspan>&#8203;<tspan x="306" y="703" textLength="41.7" dx="0,0,0,0,0,0,0,0,0,0,4.41,0">calculatorat</tspan>&#8203;<tspan x="352.1" y="703" textLength="139.3" style="fill:#2e3192">http://www.quantpsy.org/interact/hlm2.htm</tspan>&#8203;<tspan x="495.9" y="703" textLength="50.1" dx="0,0,4.41,0,0,0,0,0,0,4.41,0,0">toconductthe</tspan>&#8203;<tspan x="306" y="712" textLength="240" dx="0,0,0,0,0,0,0,0,0,0,0,3.6,0,0,0,0,3.6,0,3.6,0,0,3.6,0,0,0,0,0,3.6,0,0,0,0,0,3.6,0,0,3.6,0,0,3.6,0,0,0,0,0,0,0,0,0,0,3.6,0,0,0,0,0,0,0,0,0,3.6,0,0">statisticaltestsofthesimpleslopesforthecross-levelmoderationand</tspan>&#8203;<tspan x="306" y="721" textLength="133.9" dx="0,0,0,0,0,0,0,0,0,0,0,0,0,0,2.66,0,0,0,0,2.66,0,0,0,0,0,0,0,0,0,2.66,0,0,0,0,0,0,0">between-personlevelmoderationeffects.</tspan></text><text class="f408" font-size="9.00" style="fill:#231f20" transform="matrix(0,-1,1,0,0,0)"><tspan x="-721" y="74.5" textLength="28" dx="0,0,0,0,0,2.99">Table1</tspan>&#8203;<tspan x="-721" y="85.5" textLength="243.5" class="f411" dx="0,0,0,0,0,0,2.99,0,0,0,0,0,0,0,2.99,0,0,0,0,0,0,0,0,0,0,2.99,0,0,2.99,0,0,0,0,0,0,0,0,0,0,0,2.99,0,0,0,0,0,0,2.99,0,0,0,0,0,0,0,0">Means,StandardDeviations,andCorrelationsBetweenVariables</tspan></text><path style="stroke:#231f20;stroke-width:0.5" d="M109.25 430.32 l0 -353.32 M123.75 721 l0 -644"/><path style="stroke:#231f20;stroke-width:1" d="M91 721 l0 -644"/><path style="stroke:#231f20;stroke-width:0.5" d="M229.75 721 l0 -644"/><text class="f408" font-size="8.00" style="fill:#231f20" transform="matrix(0,-1,1,0,0,0)"><tspan x="-674.6" y="119" textLength="27.5">Variable</tspan>&#8203;<tspan x="-581.7" y="119" textLength="6.7" class="f411">M</tspan>&#8203;<tspan x="-555.6" y="111" textLength="46.2">Within-person</tspan>&#8203;<tspan x="-537.4" y="119" textLength="9.8" class="f411">SD</tspan>&#8203;<tspan x="-495.6" y="111" textLength="52">Between-person</tspan>&#8203;<tspan x="-474.5" y="119" textLength="9.8" class="f411">SD</tspan>&#8203;<tspan x="-273.4" y="104.5" textLength="39.6">Correlations</tspan>&#8203;<tspan x="-422" y="119" textLength="4">1</tspan>&#8203;<tspan x="-388.5" y="119" textLength="4">2</tspan>&#8203;<tspan x="-356.6" y="119" textLength="4">3</tspan>&#8203;<tspan x="-323.1" y="119" textLength="4">4</tspan>&#8203;<tspan x="-288.1" y="119" textLength="4">5</tspan>&#8203;<tspan x="-253.2" y="119" textLength="4">6</tspan>&#8203;<tspan x="-218.7" y="119" textLength="4">7</tspan>&#8203;<tspan x="-186.2" y="119" textLength="4">8</tspan>&#8203;<tspan x="-153.8" y="119" textLength="4">9</tspan>&#8203;<tspan x="-123.3" y="119" textLength="8">10</tspan>&#8203;<tspan x="-90.8" y="119" textLength="8">11</tspan>&#8203;<tspan x="-717" y="135.5" textLength="22" dx="0,0,2.66,0,0">1.Age</tspan>&#8203;<tspan x="-587.4" y="135.5" textLength="18">24.43</tspan>&#8203;<tspan x="-476.6" y="135.5" textLength="14">2.29</tspan>&#8203;<tspan x="-424" y="135.5" textLength="8">&#x2014;</tspan>&#8203;<tspan x="-717" y="144.5" textLength="70.4" dx="0,0,2.66,0,0,0,0,2.66,0,2.66,0,0,0,0,0,0,0,0">2.Yearsofeducation</tspan>&#8203;<tspan x="-587.4" y="144.5" textLength="18">14.46</tspan>&#8203;<tspan x="-476.6" y="144.5" textLength="14">1.97</tspan>&#8203;<tspan x="-423.2" y="144.5" textLength="10">.04</tspan>&#8203;<tspan x="-390.5" y="144.5" textLength="8">&#x2014;</tspan>&#8203;<tspan x="-717" y="153.5" textLength="42.4" dx="0,0,2.66,0,0,2.66,0,0,0,0,0">3.Jobtenure</tspan>&#8203;<tspan x="-583.4" y="153.5" textLength="14">1.21</tspan>&#8203;<tspan x="-476.6" y="153.5" textLength="14">1.19</tspan>&#8203;<tspan x="-423.2" y="153.5" textLength="10">.21</tspan></text><text class="f314" font-size="6.00" style="fill:#231f20" transform="matrix(0,-1,0.8333,0,0,0)"><tspan x="-413.2" y="180.3" textLength="3">&#xe001;</tspan></text><text class="f408" font-size="8.00" style="fill:#231f20" transform="matrix(0,-1,1,0,0,0)"><tspan x="-396.4" y="153.5" textLength="6.7" class="f305">&#x3ea;</tspan>&#8203;<tspan x="-389.7" y="153.5" textLength="10">.07</tspan>&#8203;<tspan x="-717" y="162.5" textLength="48.2" dx="0,0,2.66,0,0,0,0,0,0,0,0,0,0">4.Neuroticism</tspan>&#8203;<tspan x="-583.4" y="162.5" textLength="14">3.85</tspan>&#8203;<tspan x="-476.6" y="162.5" textLength="14">1.08</tspan>&#8203;<tspan x="-429.8" y="162.5" textLength="6.7" class="f305">&#x3ea;</tspan>&#8203;<tspan x="-423.2" y="162.5" textLength="10">.05</tspan>&#8203;<tspan x="-389.7" y="162.5" textLength="10">.18</tspan></text><text class="f314" font-size="6.00" style="fill:#231f20" transform="matrix(0,-1,0.8333,0,0,0)"><tspan x="-379.7" y="191.1" textLength="3">&#xe001;</tspan></text><text class="f408" font-size="8.00" style="fill:#231f20" transform="matrix(0,-1,1,0,0,0)"><tspan x="-362.9" y="162.5" textLength="6.7" class="f305">&#x3ea;</tspan>&#8203;<tspan x="-356.2" y="162.5" textLength="42.8" dx="0,0,0,17.47,0,0,0,0">.10(.75)</tspan>&#8203;<tspan x="-717" y="171.5" textLength="147.6" dx="0,0,2.66,0,0,0,0,0,0,0,0,2.66,0,0,0,0,0,0,0,0,0,0,0,0,0,2.66,0,0,0,0,0,0,18.29,0,0,0">5.Perceivedorganizationalsupport4.23</tspan>&#8203;<tspan x="-476.6" y="171.5" textLength="14">1.16</tspan>&#8203;<tspan x="-423.2" y="171.5" textLength="10">.02</tspan>&#8203;<tspan x="-396.4" y="171.5" textLength="6.7" class="f305">&#x3ea;</tspan>&#8203;<tspan x="-389.7" y="171.5" textLength="10">.17</tspan></text><text class="f314" font-size="6.00" style="fill:#231f20" transform="matrix(0,-1,0.8333,0,0,0)"><tspan x="-379.7" y="201.9" textLength="3">&#xe001;</tspan></text><text class="f305" font-size="8.00" style="fill:#231f20" transform="matrix(0,-1,1,0,0,0)"><tspan x="-362.9" y="171.5" textLength="6.7">&#x3ea;</tspan>&#8203;<tspan x="-356.2" y="171.5" textLength="10" class="f408">.16</tspan>&#8203;<tspan x="-332.4" y="171.5" textLength="6.7">&#x3ea;</tspan>&#8203;<tspan x="-325.8" y="171.5" textLength="10" class="f408">.30</tspan></text><text class="f314" font-size="6.00" style="fill:#231f20" transform="matrix(0,-1,0.8333,0,0,0)"><tspan x="-315.8" y="201.9" textLength="6">&#xe001;&#xe001;</tspan></text><text class="f408" font-size="8.00" style="fill:#231f20" transform="matrix(0,-1,1,0,0,0)"><tspan x="-293.8" y="171.5" textLength="15.3">(.89)</tspan>&#8203;<tspan x="-717" y="180.5" textLength="90.9" dx="0,0,2.66,0,0,0,0,0,0,2.66,0,0,0,2.66,0,0,0,0,0,0,0,0,0">6.Servicerulecommitment</tspan>&#8203;<tspan x="-583.4" y="180.5" textLength="14">3.66</tspan>&#8203;<tspan x="-476.6" y="180.5" textLength="14">0.61</tspan>&#8203;<tspan x="-423.2" y="180.5" textLength="10">.20</tspan></text><text class="f314" font-size="6.00" style="fill:#231f20" transform="matrix(0,-1,0.8333,0,0,0)"><tspan x="-413.2" y="212.7" textLength="3">&#xe001;</tspan></text><text class="f408" font-size="8.00" style="fill:#231f20" transform="matrix(0,-1,1,0,0,0)"><tspan x="-396.4" y="180.5" textLength="6.7" class="f305">&#x3ea;</tspan>&#8203;<tspan x="-389.7" y="180.5" textLength="10">.15</tspan>&#8203;<tspan x="-356.2" y="180.5" textLength="10">.09</tspan>&#8203;<tspan x="-332.4" y="180.5" textLength="6.7" class="f305">&#x3ea;</tspan>&#8203;<tspan x="-325.8" y="180.5" textLength="10">.02</tspan>&#8203;<tspan x="-289.3" y="180.5" textLength="10">.15</tspan>&#8203;<tspan x="-258.8" y="180.5" textLength="15.3">(.85)</tspan>&#8203;<tspan x="-717" y="189.5" textLength="102.9" dx="0,0,2.66,0,0,0,0,2.66,0,0,0,0,0,0,0,2.66,0,0,0,0,0,0,0,0,0,0,0">7.Dailycustomermistreatment</tspan>&#8203;<tspan x="-583.4" y="189.5" textLength="14">0.51</tspan>&#8203;<tspan x="-539.5" y="189.5" textLength="14">0.61</tspan>&#8203;<tspan x="-476.6" y="189.5" textLength="14">0.55</tspan>&#8203;<tspan x="-429.8" y="189.5" textLength="6.7" class="f305">&#x3ea;</tspan>&#8203;<tspan x="-423.2" y="189.5" textLength="10">.17</tspan></text><text class="f314" font-size="6.00" style="fill:#231f20" transform="matrix(0,-1,0.8333,0,0,0)"><tspan x="-413.2" y="223.5" textLength="3">&#xe001;</tspan></text><text class="f305" font-size="8.00" style="fill:#231f20" transform="matrix(0,-1,1,0,0,0)"><tspan x="-396.4" y="189.5" textLength="6.7">&#x3ea;</tspan>&#8203;<tspan x="-389.7" y="189.5" textLength="10" class="f408">.19</tspan></text><text class="f314" font-size="6.00" style="fill:#231f20" transform="matrix(0,-1,0.8333,0,0,0)"><tspan x="-379.7" y="223.5" textLength="3">&#xe001;</tspan></text><text class="f408" font-size="8.00" style="fill:#231f20" transform="matrix(0,-1,1,0,0,0)"><tspan x="-362.9" y="189.5" textLength="6.7" class="f305">&#x3ea;</tspan>&#8203;<tspan x="-356.2" y="189.5" textLength="10">.01</tspan>&#8203;<tspan x="-325.8" y="189.5" textLength="10">.05</tspan>&#8203;<tspan x="-296" y="189.5" textLength="6.7" class="f305">&#x3ea;</tspan>&#8203;<tspan x="-289.3" y="189.5" textLength="10">.03</tspan>&#8203;<tspan x="-262.5" y="189.5" textLength="6.7" class="f305">&#x3ea;</tspan>&#8203;<tspan x="-255.8" y="189.5" textLength="10">.06</tspan>&#8203;<tspan x="-224.4" y="189.5" textLength="42.1" dx="0,0,0,0,0,16.8,0,0">(.96).20</tspan></text><text class="f314" font-size="6.00" style="fill:#231f20" transform="matrix(0,-1,0.8333,0,0,0)"><tspan x="-182.2" y="223.5" textLength="6">&#xe001;&#xe001;</tspan></text><text class="f408" font-size="8.00" style="fill:#231f20" transform="matrix(0,-1,1,0,0,0)"><tspan x="-159.8" y="189.5" textLength="10">.42</tspan></text><text class="f314" font-size="6.00" style="fill:#231f20" transform="matrix(0,-1,0.8333,0,0,0)"><tspan x="-149.8" y="223.5" textLength="6">&#xe001;&#xe001;</tspan></text><text class="f408" font-size="8.00" style="fill:#231f20" transform="matrix(0,-1,1,0,0,0)"><tspan x="-127.3" y="189.5" textLength="10">.19</tspan></text><text class="f314" font-size="6.00" style="fill:#231f20" transform="matrix(0,-1,0.8333,0,0,0)"><tspan x="-117.3" y="223.5" textLength="6">&#xe001;&#xe001;</tspan></text><text class="f408" font-size="8.00" style="fill:#231f20" transform="matrix(0,-1,1,0,0,0)"><tspan x="-94.8" y="189.5" textLength="10">.32</tspan></text><text class="f314" font-size="6.00" style="fill:#231f20" transform="matrix(0,-1,0.8333,0,0,0)"><tspan x="-84.8" y="223.5" textLength="6">&#xe001;&#xe001;</tspan></text><text class="f408" font-size="8.00" style="fill:#231f20" transform="matrix(0,-1,1,0,0,0)"><tspan x="-717" y="198.5" textLength="79.3" dx="0,0,2.66,0,0,0,0,0,0,0,0,0,2.66,0,2.66,0,0,0,0,2.66">8.Ruminationatnight(</tspan>&#8203;<tspan x="-637.7" y="198.5" textLength="2.2" class="f411">t</tspan>&#8203;<tspan x="-632.8" y="198.5" textLength="6.7" class="f305">&#x3ea;</tspan>&#8203;<tspan x="-623.5" y="198.5" textLength="6.7">1)</tspan>&#8203;<tspan x="-583.4" y="198.5" textLength="14">1.44</tspan>&#8203;<tspan x="-539.5" y="198.5" textLength="14">0.89</tspan>&#8203;<tspan x="-476.6" y="198.5" textLength="14">0.68</tspan>&#8203;<tspan x="-429.8" y="198.5" textLength="6.7" class="f305">&#x3ea;</tspan>&#8203;<tspan x="-423.2" y="198.5" textLength="10">.08</tspan>&#8203;<tspan x="-396.4" y="198.5" textLength="6.7" class="f305">&#x3ea;</tspan>&#8203;<tspan x="-389.7" y="198.5" textLength="10">.11</tspan>&#8203;<tspan x="-356.2" y="198.5" textLength="10">.01</tspan>&#8203;<tspan x="-325.8" y="198.5" textLength="10">.08</tspan>&#8203;<tspan x="-296" y="198.5" textLength="6.7" class="f305">&#x3ea;</tspan>&#8203;<tspan x="-289.3" y="198.5" textLength="10">.20</tspan></text><text class="f314" font-size="6.00" style="fill:#231f20" transform="matrix(0,-1,0.8333,0,0,0)"><tspan x="-279.3" y="234.3" textLength="3">&#xe001;</tspan></text><text class="f408" font-size="8.00" style="fill:#231f20" transform="matrix(0,-1,1,0,0,0)"><tspan x="-262.5" y="198.5" textLength="6.7" class="f305">&#x3ea;</tspan>&#8203;<tspan x="-255.8" y="198.5" textLength="10">.15</tspan>&#8203;<tspan x="-224.7" y="198.5" textLength="10">.55</tspan></text><text class="f314" font-size="6.00" style="fill:#231f20" transform="matrix(0,-1,0.8333,0,0,0)"><tspan x="-214.7" y="234.3" textLength="6">&#xe001;&#xe001;</tspan></text><text class="f408" font-size="8.00" style="fill:#231f20" transform="matrix(0,-1,1,0,0,0)"><tspan x="-191.9" y="198.5" textLength="42.1" dx="0,0,0,0,0,16.8,0,0">(.97).63</tspan></text><text class="f314" font-size="6.00" style="fill:#231f20" transform="matrix(0,-1,0.8333,0,0,0)"><tspan x="-149.8" y="234.3" textLength="6">&#xe001;&#xe001;</tspan></text><text class="f408" font-size="8.00" style="fill:#231f20" transform="matrix(0,-1,1,0,0,0)"><tspan x="-127.3" y="198.5" textLength="10">.35</tspan></text><text class="f314" font-size="6.00" style="fill:#231f20" transform="matrix(0,-1,0.8333,0,0,0)"><tspan x="-117.3" y="234.3" textLength="6">&#xe001;&#xe001;</tspan></text><text class="f408" font-size="8.00" style="fill:#231f20" transform="matrix(0,-1,1,0,0,0)"><tspan x="-94.8" y="198.5" textLength="10">.21</tspan></text><text class="f314" font-size="6.00" style="fill:#231f20" transform="matrix(0,-1,0.8333,0,0,0)"><tspan x="-84.8" y="234.3" textLength="6">&#xe001;&#xe001;</tspan></text><text class="f408" font-size="8.00" style="fill:#231f20" transform="matrix(0,-1,1,0,0,0)"><tspan x="-717" y="207.5" textLength="79.3" dx="0,0,2.66,0,0,0,0,0,0,0,0,0,2.66,0,2.66,0,0,0,0,2.66">9.Ruminationatnight(</tspan>&#8203;<tspan x="-637.7" y="207.5" textLength="2.2" class="f411">t</tspan>&#8203;<tspan x="-635.5" y="207.5" textLength="2.7">)</tspan>&#8203;<tspan x="-583.4" y="207.5" textLength="14">1.44</tspan>&#8203;<tspan x="-539.5" y="207.5" textLength="14">0.89</tspan>&#8203;<tspan x="-476.6" y="207.5" textLength="14">0.69</tspan>&#8203;<tspan x="-429.8" y="207.5" textLength="6.7" class="f305">&#x3ea;</tspan>&#8203;<tspan x="-423.2" y="207.5" textLength="10">.11</tspan>&#8203;<tspan x="-396.4" y="207.5" textLength="6.7" class="f305">&#x3ea;</tspan>&#8203;<tspan x="-389.7" y="207.5" textLength="10">.12</tspan>&#8203;<tspan x="-362.9" y="207.5" textLength="6.7" class="f305">&#x3ea;</tspan>&#8203;<tspan x="-356.2" y="207.5" textLength="10">.03</tspan>&#8203;<tspan x="-325.8" y="207.5" textLength="10">.07</tspan>&#8203;<tspan x="-296" y="207.5" textLength="6.7" class="f305">&#x3ea;</tspan>&#8203;<tspan x="-289.3" y="207.5" textLength="10">.20</tspan></text><text class="f314" font-size="6.00" style="fill:#231f20" transform="matrix(0,-1,0.8333,0,0,0)"><tspan x="-279.3" y="245.1" textLength="3">&#xe001;</tspan></text><text class="f408" font-size="8.00" style="fill:#231f20" transform="matrix(0,-1,1,0,0,0)"><tspan x="-262.5" y="207.5" textLength="6.7" class="f305">&#x3ea;</tspan>&#8203;<tspan x="-255.8" y="207.5" textLength="10">.14</tspan>&#8203;<tspan x="-224.7" y="207.5" textLength="10">.56</tspan></text><text class="f314" font-size="6.00" style="fill:#231f20" transform="matrix(0,-1,0.8333,0,0,0)"><tspan x="-214.7" y="245.1" textLength="6">&#xe001;&#xe001;</tspan></text><text class="f408" font-size="8.00" style="fill:#231f20" transform="matrix(0,-1,1,0,0,0)"><tspan x="-192.2" y="207.5" textLength="10">.98</tspan></text><text class="f314" font-size="6.00" style="fill:#231f20" transform="matrix(0,-1,0.8333,0,0,0)"><tspan x="-182.2" y="245.1" textLength="6">&#xe001;&#xe001;</tspan></text><text class="f408" font-size="8.00" style="fill:#231f20" transform="matrix(0,-1,1,0,0,0)"><tspan x="-159.4" y="207.5" textLength="42.1" dx="0,0,0,0,0,16.8,0,0">(.97).25</tspan></text><text class="f314" font-size="6.00" style="fill:#231f20" transform="matrix(0,-1,0.8333,0,0,0)"><tspan x="-117.3" y="245.1" textLength="6">&#xe001;&#xe001;</tspan></text><text class="f408" font-size="8.00" style="fill:#231f20" transform="matrix(0,-1,1,0,0,0)"><tspan x="-94.8" y="207.5" textLength="10">.38</tspan></text><text class="f314" font-size="6.00" style="fill:#231f20" transform="matrix(0,-1,0.8333,0,0,0)"><tspan x="-84.8" y="245.1" textLength="6">&#xe001;&#xe001;</tspan></text><text class="f408" font-size="8.00" style="fill:#231f20" transform="matrix(0,-1,1,0,0,0)"><tspan x="-721" y="216.5" textLength="96.6" dx="0,0,0,2.66,0,0,0,0,0,0,2.66,0,0,0,0,0,0,0,2.66,0,0,0,2.66">10.Morningnegativemood(</tspan>&#8203;<tspan x="-624.4" y="216.5" textLength="2.2" class="f411">t</tspan>&#8203;<tspan x="-622.1" y="216.5" textLength="2.7">)</tspan>&#8203;<tspan x="-583.4" y="216.5" textLength="14">1.75</tspan>&#8203;<tspan x="-539.5" y="216.5" textLength="14">0.77</tspan>&#8203;<tspan x="-476.6" y="216.5" textLength="14">0.62</tspan>&#8203;<tspan x="-429.8" y="216.5" textLength="6.7" class="f305">&#x3ea;</tspan>&#8203;<tspan x="-423.2" y="216.5" textLength="10">.04</tspan>&#8203;<tspan x="-396.4" y="216.5" textLength="6.7" class="f305">&#x3ea;</tspan>&#8203;<tspan x="-389.7" y="216.5" textLength="10">.08</tspan>&#8203;<tspan x="-362.9" y="216.5" textLength="6.7" class="f305">&#x3ea;</tspan>&#8203;<tspan x="-356.2" y="216.5" textLength="10">.01</tspan>&#8203;<tspan x="-325.8" y="216.5" textLength="10">.14</tspan>&#8203;<tspan x="-296" y="216.5" textLength="6.7" class="f305">&#x3ea;</tspan>&#8203;<tspan x="-289.3" y="216.5" textLength="10">.14</tspan>&#8203;<tspan x="-262.5" y="216.5" textLength="6.7" class="f305">&#x3ea;</tspan>&#8203;<tspan x="-255.8" y="216.5" textLength="10">.21</tspan></text><text class="f314" font-size="6.00" style="fill:#231f20" transform="matrix(0,-1,0.8333,0,0,0)"><tspan x="-245.8" y="255.9" textLength="3">&#xe001;</tspan></text><text class="f408" font-size="8.00" style="fill:#231f20" transform="matrix(0,-1,1,0,0,0)"><tspan x="-224.7" y="216.5" textLength="10">.39</tspan></text><text class="f314" font-size="6.00" style="fill:#231f20" transform="matrix(0,-1,0.8333,0,0,0)"><tspan x="-214.7" y="255.9" textLength="6">&#xe001;&#xe001;</tspan></text><text class="f408" font-size="8.00" style="fill:#231f20" transform="matrix(0,-1,1,0,0,0)"><tspan x="-192.2" y="216.5" textLength="10">.46</tspan></text><text class="f314" font-size="6.00" style="fill:#231f20" transform="matrix(0,-1,0.8333,0,0,0)"><tspan x="-182.2" y="255.9" textLength="6">&#xe001;&#xe001;</tspan></text><text class="f408" font-size="8.00" style="fill:#231f20" transform="matrix(0,-1,1,0,0,0)"><tspan x="-159.8" y="216.5" textLength="10">.48</tspan></text><text class="f314" font-size="6.00" style="fill:#231f20" transform="matrix(0,-1,0.8333,0,0,0)"><tspan x="-149.8" y="255.9" textLength="6">&#xe001;&#xe001;</tspan></text><text class="f408" font-size="8.00" style="fill:#231f20" transform="matrix(0,-1,1,0,0,0)"><tspan x="-127" y="216.5" textLength="42.1" dx="0,0,0,0,0,16.8,0,0">(.92).71</tspan></text><text class="f314" font-size="6.00" style="fill:#231f20" transform="matrix(0,-1,0.8333,0,0,0)"><tspan x="-84.8" y="255.9" textLength="6">&#xe001;&#xe001;</tspan></text><text class="f408" font-size="8.00" style="fill:#231f20" transform="matrix(0,-1,1,0,0,0)"><tspan x="-721" y="225.5" textLength="96.6" dx="0,0,0,2.66,0,0,0,0,0,0,2.66,0,0,0,0,0,0,0,2.66,0,0,0,2.66">11.Morningnegativemood(</tspan>&#8203;<tspan x="-624.4" y="225.5" textLength="2.2" class="f411">t</tspan>&#8203;<tspan x="-619.5" y="225.5" textLength="6.7" class="f305">&#x3e9;</tspan>&#8203;<tspan x="-610.2" y="225.5" textLength="40.7" dx="0,0,20.07,0,0,0">1)1.74</tspan>&#8203;<tspan x="-539.5" y="225.5" textLength="14">0.78</tspan>&#8203;<tspan x="-476.6" y="225.5" textLength="14">0.64</tspan>&#8203;<tspan x="-429.8" y="225.5" textLength="6.7" class="f305">&#x3ea;</tspan>&#8203;<tspan x="-423.2" y="225.5" textLength="10">.08</tspan>&#8203;<tspan x="-396.4" y="225.5" textLength="6.7" class="f305">&#x3ea;</tspan>&#8203;<tspan x="-389.7" y="225.5" textLength="10">.07</tspan>&#8203;<tspan x="-362.9" y="225.5" textLength="6.7" class="f305">&#x3ea;</tspan>&#8203;<tspan x="-356.2" y="225.5" textLength="10">.01</tspan>&#8203;<tspan x="-325.8" y="225.5" textLength="10">.13</tspan>&#8203;<tspan x="-296" y="225.5" textLength="6.7" class="f305">&#x3ea;</tspan>&#8203;<tspan x="-289.3" y="225.5" textLength="10">.16</tspan>&#8203;<tspan x="-262.5" y="225.5" textLength="6.7" class="f305">&#x3ea;</tspan>&#8203;<tspan x="-255.8" y="225.5" textLength="10">.23</tspan></text><text class="f314" font-size="6.00" style="fill:#231f20" transform="matrix(0,-1,0.8333,0,0,0)"><tspan x="-245.8" y="266.7" textLength="6">&#xe001;&#xe001;</tspan></text><text class="f408" font-size="8.00" style="fill:#231f20" transform="matrix(0,-1,1,0,0,0)"><tspan x="-224.7" y="225.5" textLength="10">.40</tspan></text><text class="f314" font-size="6.00" style="fill:#231f20" transform="matrix(0,-1,0.8333,0,0,0)"><tspan x="-214.7" y="266.7" textLength="6">&#xe001;&#xe001;</tspan></text><text class="f408" font-size="8.00" style="fill:#231f20" transform="matrix(0,-1,1,0,0,0)"><tspan x="-192.2" y="225.5" textLength="10">.47</tspan></text><text class="f314" font-size="6.00" style="fill:#231f20" transform="matrix(0,-1,0.8333,0,0,0)"><tspan x="-182.2" y="266.7" textLength="6">&#xe001;&#xe001;</tspan></text><text class="f408" font-size="8.00" style="fill:#231f20" transform="matrix(0,-1,1,0,0,0)"><tspan x="-159.8" y="225.5" textLength="10">.50</tspan></text><text class="f314" font-size="6.00" style="fill:#231f20" transform="matrix(0,-1,0.8333,0,0,0)"><tspan x="-149.8" y="266.7" textLength="6">&#xe001;&#xe001;</tspan></text><text class="f408" font-size="8.00" style="fill:#231f20" transform="matrix(0,-1,1,0,0,0)"><tspan x="-127.3" y="225.5" textLength="10">.98</tspan></text><text class="f314" font-size="6.00" style="fill:#231f20" transform="matrix(0,-1,0.8333,0,0,0)"><tspan x="-117.3" y="266.7" textLength="6">&#xe001;&#xe001;</tspan></text><text class="f408" font-size="8.00" style="fill:#231f20" transform="matrix(0,-1,1,0,0,0)"><tspan x="-94.5" y="225.5" textLength="15.3">(.92)</tspan>&#8203;<tspan x="-721" y="240.5" textLength="15.1" class="f411">Note</tspan>&#8203;<tspan x="-705.9" y="240.5" textLength="242" dx="0,8,0,0,0,0,0,0,0,0,0,0,0,2.16,0,0,0,0,2.16,0,0,2.16,0,0,0,0,0,0,0,2.16,0,0,0,0,0,0,0,0,2.16,0,0,0,0,0,0,0,0,0,0,0,0,0,2.16,0,0,0,0,0,0,0,0,0,0,0,2.16">.Correlationsbelowthediagonalrepresentbetween-personcorrelations(</tspan>&#8203;<tspan x="-463.9" y="240.5" textLength="5.3" class="f411">N</tspan>&#8203;<tspan x="-456.4" y="240.5" textLength="6.7" class="f305">&#x3ed;</tspan>&#8203;<tspan x="-447.6" y="240.5" textLength="370.7" dx="0,0,0,0,0,2.16,0,0,0,0,0,0,0,0,0,0,0,0,2.16,0,0,0,0,0,0,0,0,2.16,0,0,0,2.16,0,0,0,0,0,0,0,2.16,0,0,0,0,0,2.16,0,0,0,2.16,0,2.16,0,0,0,2.16,0,0,2.16,0,0,0,0,0,0,0,0,0,0,0,0,0,2.16,0,0,0,0,0,0,0,0,0,2.16,0,0,0,0,0,0,0,0,0,0,0,2.16,0,0,0,0">149).Within-personvariableswereaveragedacrossdaystoformthebetween-personvariables.Correlationsabove</tspan>&#8203;<tspan x="-721" y="249.5" textLength="162.4" dx="0,0,0,2.18,0,0,0,0,0,0,0,2.18,0,0,0,0,0,0,0,0,2.18,0,0,0,0,0,0,0,0,0,0,0,0,2.18,0,0,0,0,0,0,0,0,0,0,0,2.18">thediagonalrepresentwithin-personcorrelations(</tspan>&#8203;<tspan x="-558.6" y="249.5" textLength="5.3" class="f411">N</tspan>&#8203;<tspan x="-551.1" y="249.5" textLength="6.7" class="f305">&#x3ed;</tspan>&#8203;<tspan x="-542.2" y="249.5" textLength="465.3" dx="0,0,0,0,0,0,0,2.18,0,0,0,0,0,0,0,0,0,0,2.18,0,0,0,0,2.18,0,0,0,0,0,0,0,0,2.18,0,2.18,0,0,0,0,0,0,0,0,0,0,2.18,0,0,2.18,0,2.18,0,0,0,0,0,0,0,0,0,0,2.18,0,2.18,0,0,2.18,0,0,0,0,0,0,0,0,2.18,0,0,2.18,0,0,0,0,0,0,0,0,0,0,0,0,2.18,0,0,0,0,0,0,0,0,0,2.18,0,0,0,0,2.18,0,0,0,0,0,0,0,0,0,0,0,0,2.18,0,0,0,2.18,0,0,2.18,0,0,0">1,189).Coefficientalphaestimatesofreliabilityareinparenthesesonthediagonal.Forwithin-personvariables,theirreliabilitieswerethemean</tspan>&#8203;<tspan x="-721" y="258.5" textLength="118.4" dx="0,0,0,0,0,0,2.66,0,0,0,0,0,2.66,2.66,0,0,0,2.66,0,2.66,0,0,0,0,0,0,0,0,0,0,0">alphasacross8daysofobservation.</tspan></text><text class="f314" font-size="6.00" style="fill:#231f20" transform="matrix(0,-1,0.8333,0,0,0)"><tspan x="-721" y="317.1" textLength="3">&#xe001;</tspan></text><text class="f305" font-size="8.00" style="fill:#231f20" transform="matrix(0,-1,1,0,0,0)"><tspan x="-716" y="267.5" textLength="4" class="f411">p</tspan>&#8203;<tspan x="-709.3" y="267.5" textLength="6.7">&#x3fd;</tspan>&#8203;<tspan x="-700" y="267.5" textLength="12" class="f408">.05.</tspan></text><text class="f314" font-size="6.00" style="fill:#231f20" transform="matrix(0,-1,0.8333,0,0,0)"><tspan x="-680" y="317.1" textLength="6">&#xe001;&#xe001;</tspan></text><text class="f305" font-size="8.00" style="fill:#231f20" transform="matrix(0,-1,1,0,0,0)"><tspan x="-672" y="267.5" textLength="4" class="f411">p</tspan>&#8203;<tspan x="-665.4" y="267.5" textLength="6.7">&#x3fd;</tspan>&#8203;<tspan x="-656" y="267.5" textLength="12" class="f408">.01.</tspan></text><text class="f408" font-size="8.00" style="fill:#918f8f" transform="matrix(0,-1,1,0,0,0)"><tspan x="-570.8" y="13" textLength="343.7" dx="0,0,0,0,2.66,0,0,0,0,0,0,0,2.66,0,2.66,0,0,0,0,0,0,0,0,0,0,2.66,0,2.66,0,0,2.66,0,0,0,0,0,0,0,2.66,0,0,0,0,0,0,0,0,0,0,0,0,2.66,0,0,0,0,0,0,0,0,0,0,2.66,0,2.66,0,0,2.66,0,2.66,0,0,2.66,0,0,0,0,0,2.66,0,0,0,0,0,0,0,0,0,0">ThisdocumentiscopyrightedbytheAmericanPsychologicalAssociationoroneofitsalliedpublishers.</tspan>&#8203;<tspan x="-581.5" y="23" textLength="365" dx="0,0,0,0,2.66,0,0,0,0,0,0,2.66,0,2.66,0,0,0,0,0,0,0,2.66,0,0,0,0,0,2.66,0,0,2.66,0,0,2.66,0,0,0,0,0,0,0,2.66,0,0,2.66,0,2.66,0,0,2.66,0,0,0,0,0,0,0,0,0,2.66,0,0,0,2.66,0,0,2.66,0,2.66,0,0,2.66,0,2.66,0,2.66,0,0,0,0,0,0,0,0,0,0,0,2.66,0,0,0,0,0,0,0">Thisarticleisintendedsolelyforthepersonaluseoftheindividualuserandisnottobedisseminatedbroadly.</tspan></text><text class="f408" font-size="8.00" style="fill:#231f20"><tspan x="531" y="60" textLength="15" font-size="10.00">995</tspan>&#8203;<tspan x="248.6" y="58.5" textLength="96.9" dx="0,0,0,0,0,0,0,0,2.66,0,0,0,0,0,0,0,0,0">EMPLOYEERUMINATION</tspan></text>
</svg>
